<svg width="1685" height="42" viewBox="0 0 1685 42" fill="none" xmlns="http://www.w3.org/2000/svg">
<g clip-path="url(#clip0_98_38494)">
<rect width="1685" height="67" fill="#3C3230"/>
<rect opacity="0.05" width="20.1891" height="167.788" transform="matrix(0.746433 -0.665461 0.746433 0.665461 54.5488 -15.4658)" fill="#FFF8B0"/>
<rect opacity="0.05" width="20.1891" height="167.788" transform="matrix(0.746433 -0.665461 0.746433 0.665461 110.521 -15.5649)" fill="#FFF8B0"/>
<rect opacity="0.05" width="20.1891" height="167.788" transform="matrix(0.746433 -0.665461 0.746433 0.665461 -51 -11.4658)" fill="#FFF8B0"/>
<rect opacity="0.05" width="20.1891" height="167.788" transform="matrix(0.746433 -0.665461 0.746433 0.665461 4.97266 -11.5649)" fill="#FFF8B0"/>
<rect opacity="0.05" width="20.1891" height="167.788" transform="matrix(0.746433 -0.665461 0.746433 0.665461 166.605 -15.5649)" fill="#FFF8B0"/>
<rect opacity="0.05" width="20.1891" height="167.788" transform="matrix(0.746433 -0.665461 0.746433 0.665461 226.054 -15.4658)" fill="#FFF8B0"/>
<rect opacity="0.05" width="20.1891" height="167.788" transform="matrix(0.746433 -0.665461 0.746433 0.665461 282.027 -15.5649)" fill="#FFF8B0"/>
<rect opacity="0.05" width="20.1891" height="167.788" transform="matrix(0.746433 -0.665461 0.746433 0.665461 338.111 -15.5649)" fill="#FFF8B0"/>
<rect opacity="0.05" width="20.1891" height="167.788" transform="matrix(0.746433 -0.665461 0.746433 0.665461 397.671 -15.4658)" fill="#FFF8B0"/>
<rect opacity="0.05" width="20.1891" height="167.788" transform="matrix(0.746433 -0.665461 0.746433 0.665461 453.644 -15.5649)" fill="#FFF8B0"/>
<rect opacity="0.05" width="20.1891" height="167.788" transform="matrix(0.746433 -0.665461 0.746433 0.665461 509.728 -15.5649)" fill="#FFF8B0"/>
<rect opacity="0.05" width="20.1891" height="167.788" transform="matrix(0.746433 -0.665461 0.746433 0.665461 569.176 -15.4658)" fill="#FFF8B0"/>
<rect opacity="0.05" width="20.1891" height="167.788" transform="matrix(0.746433 -0.665461 0.746433 0.665461 625.149 -15.5649)" fill="#FFF8B0"/>
<rect opacity="0.05" width="20.1891" height="167.788" transform="matrix(0.746433 -0.665461 0.746433 0.665461 681.233 -15.5649)" fill="#FFF8B0"/>
<rect opacity="0.05" width="20.1891" height="167.788" transform="matrix(0.746433 -0.665461 0.746433 0.665461 740.904 -15.4658)" fill="#FFF8B0"/>
<rect opacity="0.05" width="20.1891" height="167.788" transform="matrix(0.746433 -0.665461 0.746433 0.665461 796.877 -15.5649)" fill="#FFF8B0"/>
<rect opacity="0.05" width="20.1891" height="167.788" transform="matrix(0.746433 -0.665461 0.746433 0.665461 852.961 -15.5649)" fill="#FFF8B0"/>
<rect opacity="0.05" width="20.1891" height="167.788" transform="matrix(0.746433 -0.665461 0.746433 0.665461 912.41 -15.4658)" fill="#FFF8B0"/>
<rect opacity="0.05" width="20.1891" height="167.788" transform="matrix(0.746433 -0.665461 0.746433 0.665461 968.382 -15.5649)" fill="#FFF8B0"/>
<rect opacity="0.05" width="20.1891" height="167.788" transform="matrix(0.746433 -0.665461 0.746433 0.665461 1024.47 -15.5649)" fill="#FFF8B0"/>
<rect opacity="0.05" width="20.1891" height="167.788" transform="matrix(0.746433 -0.665461 0.746433 0.665461 1084.03 -15.4658)" fill="#FFF8B0"/>
<rect opacity="0.05" width="20.1891" height="167.788" transform="matrix(0.746433 -0.665461 0.746433 0.665461 1140 -15.5649)" fill="#FFF8B0"/>
<rect opacity="0.05" width="20.1891" height="167.788" transform="matrix(0.746433 -0.665461 0.746433 0.665461 1196.08 -15.5649)" fill="#FFF8B0"/>
<rect opacity="0.05" width="20.1891" height="167.788" transform="matrix(0.746433 -0.665461 0.746433 0.665461 1255.53 -15.4658)" fill="#FFF8B0"/>
<rect opacity="0.05" width="20.1891" height="167.788" transform="matrix(0.746433 -0.665461 0.746433 0.665461 1311.5 -15.5649)" fill="#FFF8B0"/>
<rect opacity="0.05" width="20.1891" height="167.788" transform="matrix(0.746433 -0.665461 0.746433 0.665461 1367.59 -15.5649)" fill="#FFF8B0"/>
<rect opacity="0.05" width="20.1891" height="167.788" transform="matrix(0.746433 -0.665461 0.746433 0.665461 1427.37 -15.4658)" fill="#FFF8B0"/>
<rect opacity="0.05" width="20.1891" height="167.788" transform="matrix(0.746433 -0.665461 0.746433 0.665461 1483.34 -15.5649)" fill="#FFF8B0"/>
<rect opacity="0.05" width="20.1891" height="167.788" transform="matrix(0.746433 -0.665461 0.746433 0.665461 1539.43 -15.5649)" fill="#FFF8B0"/>
<rect opacity="0.05" width="20.1891" height="167.788" transform="matrix(0.746433 -0.665461 0.746433 0.665461 1598.88 -15.4658)" fill="#FFF8B0"/>
<rect opacity="0.05" width="20.1891" height="167.788" transform="matrix(0.746433 -0.665461 0.746433 0.665461 1654.85 -15.5649)" fill="#FFF8B0"/>
</g>
<defs>
<clipPath id="clip0_98_38494">
<rect width="1685" height="42" fill="white"/>
</clipPath>
</defs>
</svg>
